<?xml version="1.0" encoding="UTF-8" standalone="no"?>
<!DOCTYPE svg PUBLIC "-//W3C//DTD SVG 1.1//EN"
 "http://www.w3.org/Graphics/SVG/1.1/DTD/svg11.dtd">
<!-- Generated by graphviz version 2.34.0 (20130907.0228)
 -->
<!-- Title: G Pages: 1 -->
<svg width="338pt" height="220pt"
 viewBox="0.00 0.00 338.00 220.00" xmlns="http://www.w3.org/2000/svg" xmlns:xlink="http://www.w3.org/1999/xlink">
<g id="graph0" class="graph" transform="scale(1 1) rotate(0) translate(4 216)">
<title>G</title>
<polygon fill="white" stroke="white" points="-4,4 -4,-216 334,-216 334,4 -4,4"/>
<!-- Transmedia_User -->
<g id="node1" class="node"><title>Transmedia_User</title>
<ellipse fill="none" stroke="black" cx="188" cy="-194" rx="75.0904" ry="18"/>
<text text-anchor="middle" x="188" y="-190.3" font-family="Times,serif" font-size="14.00">Transmedia_User</text>
</g>
<!-- Transmedia_Narrative -->
<g id="node2" class="node"><title>Transmedia_Narrative</title>
<ellipse fill="none" stroke="black" cx="92" cy="-106" rx="91.9385" ry="18"/>
<text text-anchor="middle" x="92" y="-102.3" font-family="Times,serif" font-size="14.00">Transmedia_Narrative</text>
</g>
<!-- Transmedia_User&#45;&gt;Transmedia_Narrative -->
<g id="edge1" class="edge"><title>Transmedia_User&#45;&gt;Transmedia_Narrative</title>
<path fill="none" stroke="black" d="M161.937,-169.652C148.421,-157.543 131.948,-142.787 118.385,-130.637"/>
<polygon fill="black" stroke="black" points="159.706,-172.353 169.49,-176.418 164.377,-167.139 159.706,-172.353"/>
<polygon fill="black" stroke="black" points="120.564,-127.89 110.78,-123.824 115.893,-133.104 120.564,-127.89"/>
<text text-anchor="middle" x="172" y="-146.3" font-family="Times,serif" font-size="14.00">engages</text>
</g>
<!-- Biometric_Device_Actuator -->
<g id="node3" class="node"><title>Biometric_Device_Actuator</title>
<ellipse fill="none" stroke="black" cx="170" cy="-18" rx="113.61" ry="18"/>
<text text-anchor="middle" x="170" y="-14.3" font-family="Times,serif" font-size="14.00">Biometric_Device_Actuator</text>
</g>
<!-- Transmedia_User&#45;&gt;Biometric_Device_Actuator -->
<g id="edge3" class="edge"><title>Transmedia_User&#45;&gt;Biometric_Device_Actuator</title>
<path fill="none" stroke="black" d="M197.026,-165.948C205.089,-137.247 213.697,-91.0254 200,-54 198.702,-50.491 196.877,-47.0963 194.762,-43.8913"/>
<polygon fill="black" stroke="black" points="193.628,-165.096 194.122,-175.679 200.335,-167.098 193.628,-165.096"/>
<polygon fill="black" stroke="black" points="197.504,-41.7145 188.645,-35.9022 191.946,-45.9699 197.504,-41.7145"/>
<text text-anchor="middle" x="268.5" y="-102.3" font-family="Times,serif" font-size="14.00">_measures_stimulates</text>
</g>
<!-- Transmedia_Narrative&#45;&gt;Biometric_Device_Actuator -->
<g id="edge2" class="edge"><title>Transmedia_Narrative&#45;&gt;Biometric_Device_Actuator</title>
<path fill="none" stroke="black" d="M114.227,-80.4935C124.721,-68.9225 137.218,-55.1444 147.719,-43.5659"/>
<polygon fill="black" stroke="black" points="111.536,-78.2506 107.41,-88.0092 116.721,-82.9533 111.536,-78.2506"/>
<polygon fill="black" stroke="black" points="150.496,-45.7141 154.622,-35.9555 145.311,-41.0114 150.496,-45.7141"/>
<text text-anchor="middle" x="167" y="-58.3" font-family="Times,serif" font-size="14.00">modulates</text>
</g>
</g>
</svg>
